<svg width="60" height="37" viewBox="0 0 60 37" fill="none" xmlns="http://www.w3.org/2000/svg">
<path d="M13.1682 0.102105C16.6534 -0.313179 20.2483 0.552936 23.2226 2.43383C24.7313 3.38882 26.2526 4.54903 27.1836 6.07605C27.7883 7.14577 28.218 8.40616 27.6865 9.43386C26.3688 11.3762 22.9091 9.31429 21.3225 8.3997C19.7486 7.46087 18.0522 6.60444 16.2158 6.39114C10.1287 5.5121 4.9726 11.1241 6.67538 17.2095C7.374 19.7513 9.32345 21.8891 11.7615 22.8215C18.5137 25.3181 23.525 19.5671 27.8711 15.188C30.6258 12.3974 33.3646 9.56152 36.1956 6.80643C39.7508 3.3048 43.1293 0.653122 48.1613 0.0956399C49.6922 -0.0788761 51.2533 -0.0126257 52.7683 0.281466C57.8751 1.16213 59.467 6.07605 54.8181 6.06312C46.772 5.62198 43.9966 7.39784 38.4474 13.0292C35.7087 15.7908 33.0542 18.5281 30.2836 21.2961C27.9331 23.6165 25.2469 26.3328 22.4508 27.8372C13.5963 32.617 2.36113 27.9924 0.295508 17.7638C-1.4407 9.25612 4.68456 1.03771 13.1348 0.10857L13.1667 0.105335L13.1682 0.102105Z" fill="#F9FCFC"/>
<path d="M32.5066 25.7656C31.7539 24.7153 33.907 23.2901 35.1228 22.0539C37.0596 20.2603 39.2286 18.2566 41.3579 16.2852C43.145 14.6322 44.4516 13.4267 45.8886 12.0888C47.3542 10.8138 48.282 9.33367 50.1233 9.29004C53.2822 9.38699 55.3748 14.372 55.9923 17.1239C57.9545 26.1114 51.7847 34.6676 42.884 35.9263C38.8865 36.5953 34.8077 35.6969 31.0362 34.3977C29.3381 33.7837 26.9495 32.9919 25.8196 32.2001C25.6032 32.0531 25.4042 31.8802 25.2562 31.6879C24.1136 29.7698 27.7802 29.2818 29.2697 29.3174C31.3878 29.3222 33.4646 30.1819 35.5509 30.5309C40.4285 31.4423 46.0859 29.6179 48.7706 25.2049C49.5408 23.9655 49.9975 22.369 50.0867 20.9923C50.1726 19.8499 50.031 18.9191 49.6061 18.4909C48.6528 17.5941 46.8132 19.0306 45.8822 19.5946C43.7736 21.0085 40.9187 22.9394 38.8546 24.3226C37.7598 25.0595 36.5519 25.798 35.2963 26.0904C34.3303 26.3102 33.14 26.4217 32.5177 25.7769L32.5098 25.7673L32.5066 25.7656Z" fill="#E67919"/>
</svg>
