<svg width="1440" height="1352" viewBox="0 0 1440 1352" fill="none" xmlns="http://www.w3.org/2000/svg">
<g filter="url(#filter0_f_291_116)">
</g>
<path d="M448.785 281L-489 587.669" stroke="#B3B3B3" stroke-opacity="0.1"/>
<path d="M484.879 281L-208.12 587.669" stroke="#B3B3B3" stroke-opacity="0.1"/>
<path d="M520.976 281L-1.87673 587.669" stroke="#B3B3B3" stroke-opacity="0.1"/>
<path d="M557.07 281L163.698 587.669" stroke="#B3B3B3" stroke-opacity="0.1"/>
<path d="M593.166 281L305.282 587.669" stroke="#B3B3B3" stroke-opacity="0.1"/>
<path d="M629.262 281L432.197 587.669" stroke="#B3B3B3" stroke-opacity="0.1"/>
<path d="M665.357 281L550.273 587.669" stroke="#B3B3B3" stroke-opacity="0.1"/>
<path d="M701.453 281L663.593 587.669" stroke="#B3B3B3" stroke-opacity="0.1"/>
<path d="M737.547 281L775.407 587.669" stroke="#B3B3B3" stroke-opacity="0.1"/>
<path d="M773.643 281L888.727 587.669" stroke="#B3B3B3" stroke-opacity="0.1"/>
<path d="M809.738 281L1006.8 587.669" stroke="#B3B3B3" stroke-opacity="0.1"/>
<path d="M845.834 281L1133.72 587.669" stroke="#B3B3B3" stroke-opacity="0.1"/>
<path d="M881.93 281L1275.3 587.669" stroke="#B3B3B3" stroke-opacity="0.1"/>
<path d="M918.023 281L1440.88 587.669" stroke="#B3B3B3" stroke-opacity="0.1"/>
<path d="M954.119 281L1647.12 587.669" stroke="#B3B3B3" stroke-opacity="0.1"/>
<path d="M990.214 281L1928 587.669" stroke="#B3B3B3" stroke-opacity="0.1"/>
<path d="M448.785 281H990.216" stroke="#B3B3B3" stroke-opacity="0.1"/>
<path d="M448.785 281H990.216" stroke="#B3B3B3" stroke-opacity="0.1"/>
<path d="M448.785 281H990.216" stroke="#B3B3B3" stroke-opacity="0.1"/>
<path d="M448.785 281H990.216" stroke="#B3B3B3" stroke-opacity="0.1"/>
<path d="M448.785 281H990.216" stroke="#B3B3B3" stroke-opacity="0.1"/>
<path d="M448.785 281.001H990.217" stroke="#B3B3B3" stroke-opacity="0.1"/>
<path d="M448.783 281.001H990.217" stroke="#B3B3B3" stroke-opacity="0.1"/>
<path d="M448.779 281.003H990.221" stroke="#B3B3B3" stroke-opacity="0.1"/>
<path d="M448.77 281.005H990.229" stroke="#B3B3B3" stroke-opacity="0.1"/>
<path d="M448.752 281.012H990.248" stroke="#B3B3B3" stroke-opacity="0.1"/>
<path d="M448.717 281.022H990.284" stroke="#B3B3B3" stroke-opacity="0.1"/>
<path d="M448.652 281.044H990.349" stroke="#B3B3B3" stroke-opacity="0.1"/>
<path d="M448.541 281.08H990.461" stroke="#B3B3B3" stroke-opacity="0.1"/>
<path d="M448.355 281.141H990.643" stroke="#B3B3B3" stroke-opacity="0.1"/>
<path d="M448.064 281.235H990.935" stroke="#B3B3B3" stroke-opacity="0.1"/>
<path d="M447.617 281.382H991.383" stroke="#B3B3B3" stroke-opacity="0.1"/>
<path d="M446.951 281.6H992.05" stroke="#B3B3B3" stroke-opacity="0.1"/>
<path d="M445.98 281.917H993.019" stroke="#B3B3B3" stroke-opacity="0.1"/>
<path d="M444.602 282.369H994.399" stroke="#B3B3B3" stroke-opacity="0.1"/>
<path d="M442.676 282.997H996.323" stroke="#B3B3B3" stroke-opacity="0.1"/>
<path d="M440.037 283.861H998.961" stroke="#B3B3B3" stroke-opacity="0.1"/>
<path d="M436.477 285.025H1002.52" stroke="#B3B3B3" stroke-opacity="0.1"/>
<path d="M431.74 286.574H1007.26" stroke="#B3B3B3" stroke-opacity="0.1"/>
<path d="M425.518 288.609H1013.48" stroke="#B3B3B3" stroke-opacity="0.1"/>
<path d="M417.441 291.249H1021.56" stroke="#B3B3B3" stroke-opacity="0.1"/>
<path d="M407.076 294.641H1031.92" stroke="#B3B3B3" stroke-opacity="0.1"/>
<path d="M393.898 298.948H1045.1" stroke="#B3B3B3" stroke-opacity="0.1"/>
<path d="M377.303 304.376H1061.7" stroke="#B3B3B3" stroke-opacity="0.1"/>
<path d="M356.58 311.153H1082.42" stroke="#B3B3B3" stroke-opacity="0.1"/>
<path d="M330.906 319.548H1108.09" stroke="#B3B3B3" stroke-opacity="0.1"/>
<path d="M299.334 329.873H1139.67" stroke="#B3B3B3" stroke-opacity="0.1"/>
<path d="M260.773 342.483H1178.23" stroke="#B3B3B3" stroke-opacity="0.1"/>
<path d="M213.982 357.784H1225.02" stroke="#B3B3B3" stroke-opacity="0.1"/>
<path d="M157.547 376.239H1281.45" stroke="#B3B3B3" stroke-opacity="0.1"/>
<path d="M89.8594 398.373H1349.14" stroke="#B3B3B3" stroke-opacity="0.1"/>
<path d="M9.11523 424.779H1429.89" stroke="#B3B3B3" stroke-opacity="0.1"/>
<path d="M-86.7266 456.12H1525.73" stroke="#B3B3B3" stroke-opacity="0.1"/>
<path d="M-199.943 493.144H1638.94" stroke="#B3B3B3" stroke-opacity="0.1"/>
<path d="M-333.088 536.684H1772.09" stroke="#B3B3B3" stroke-opacity="0.1"/>
<path d="M-489 587.669H1928" stroke="#B3B3B3" stroke-opacity="0.1"/>
<g filter="url(#filter1_f_291_116)">
<rect x="291" y="202" width="856" height="155" fill="#0D0B0A"/>
</g>
<defs>
<filter id="filter1_f_291_116" x="221.2" y="132.2" width="995.6" height="294.6" filterUnits="userSpaceOnUse" color-interpolation-filters="sRGB">
<feFlood flood-opacity="0" result="BackgroundImageFix"/>
<feBlend mode="normal" in="SourceGraphic" in2="BackgroundImageFix" result="shape"/>
<feGaussianBlur stdDeviation="34.9" result="effect1_foregroundBlur_291_116"/>
</filter>
</defs>
</svg>
